<svg width="20" height="20" viewBox="0 0 20 20" fill="none" xmlns="http://www.w3.org/2000/svg">
<g clip-path="url(#clip0_13517_493)">
<path d="M0.436161 14.8952C0.844494 16.3435 2.09366 16.6085 2.17699 16.6593C4.23283 17.2193 15.7562 17.221 17.8428 16.6593C19.272 16.246 19.5345 14.9785 19.5837 14.8952C20.1278 12.0002 20.1637 8.226 19.5587 4.941L19.5837 5.10433C19.1753 3.656 17.9262 3.391 17.8428 3.34016C15.8145 2.78933 4.26116 2.7685 2.17699 3.34016C0.747827 3.75433 0.485327 5.021 0.436161 5.10433C-0.146339 8.14683 -0.175506 11.6377 0.436161 14.8952ZM8.00783 13.0427V6.96516L13.2295 10.0085L8.00783 13.0427Z" fill="#E53935"/>
</g>
<defs>
<clipPath id="clip0_13517_493">
<rect width="20" height="20" fill="white"/>
</clipPath>
</defs>
</svg>
